<?xml version="1.0" encoding="utf-8"?>
<!-- Generator: Adobe Illustrator 17.0.0, SVG Export Plug-In . SVG Version: 6.00 Build 0)  -->
<!DOCTYPE svg PUBLIC "-//W3C//DTD SVG 1.1//EN" "http://www.w3.org/Graphics/SVG/1.1/DTD/svg11.dtd">
<svg version="1.1" xmlns="http://www.w3.org/2000/svg" xmlns:xlink="http://www.w3.org/1999/xlink" x="0px" y="0px" width="4px"
	 height="4px" viewBox="0 0 4 4" enable-background="new 0 0 4 4" xml:space="preserve">
<g id="Calque_1" display="none">
	<polygon display="inline" fill="none" stroke="#000000" stroke-width="0.0283" stroke-miterlimit="10" points="2.838,4 1.171,4 
		0,2.829 0,1.162 1.171,-0.009 2.838,-0.009 4.009,1.162 4.009,2.829 	"/>
</g>
<g id="Calque_2" display="none">
	<polygon display="inline" fill="#FFFFFF" stroke="#000000" stroke-width="0.0283" stroke-miterlimit="10" points="1.49,0 0.721,0 
		1.49,0.769 	"/>
	<polygon display="inline" fill="#FFFFFF" stroke="#000000" stroke-width="0.0283" stroke-miterlimit="10" points="0,0.721 0,1.49 
		0.769,1.49 	"/>
	<polygon display="inline" fill="#FFFFFF" stroke="#000000" stroke-width="0.0283" stroke-miterlimit="10" points="3.278,0 2.51,0 
		2.51,0.769 	"/>
	<polygon display="inline" fill="#FFFFFF" stroke="#000000" stroke-width="0.0283" stroke-miterlimit="10" points="4,3.278 4,2.51 
		3.232,2.51 	"/>
	<polygon display="inline" fill="#FFFFFF" stroke="#000000" stroke-width="0.0283" stroke-miterlimit="10" points="4,1.49 4,0.722 
		3.231,1.49 	"/>
	<polygon display="inline" fill="#FFFFFF" stroke="#000000" stroke-width="0.0283" stroke-miterlimit="10" points="0.722,4 1.49,4 
		1.49,3.231 	"/>
	<polygon display="inline" fill="#FFFFFF" stroke="#000000" stroke-width="0.0283" stroke-miterlimit="10" points="0,2.51 0,3.278 
		0.769,2.51 	"/>
	<polygon display="inline" fill="#FFFFFF" stroke="#000000" stroke-width="0.0283" stroke-miterlimit="10" points="2.51,4 3.278,4 
		2.51,3.232 	"/>
</g>
<g id="Calque_3" display="none">
	<g display="inline">
		<g>
			<path d="M3.595,0.262c-1.049,1.009-2.074,2.04-3.021,3.146c-0.035,0.041,0.024,0.102,0.06,0.06
				c0.947-1.106,1.972-2.137,3.021-3.146C3.695,0.284,3.634,0.224,3.595,0.262L3.595,0.262z"/>
		</g>
	</g>
	<g display="inline">
		<g>
			<path d="M1.563,0.822c-0.21,0.666-0.658,1.221-1.058,1.782C0.473,2.648,0.547,2.691,0.578,2.646
				c0.406-0.567,0.854-1.128,1.067-1.802C1.662,0.792,1.58,0.77,1.563,0.822L1.563,0.822z"/>
		</g>
	</g>
	<g display="inline">
		<g>
			<path d="M2.532,0.991C2.128,1.464,1.649,1.857,1.178,2.262c-0.042,0.036,0.019,0.096,0.06,0.06
				c0.471-0.404,0.95-0.797,1.354-1.271C2.628,1.009,2.568,0.949,2.532,0.991L2.532,0.991z"/>
		</g>
	</g>
	<g display="inline">
		<g>
			<path d="M3.234,0.937C2.81,1.723,2.397,2.511,2.188,3.385C2.175,3.438,2.257,3.46,2.27,3.407C2.477,2.541,2.887,1.758,3.308,0.98
				C3.334,0.932,3.26,0.889,3.234,0.937L3.234,0.937z"/>
		</g>
	</g>
	<g display="inline">
		<g>
			<path d="M3.609,1.749C3.341,2.239,3.053,2.716,2.755,3.187C2.726,3.233,2.799,3.276,2.828,3.23
				c0.298-0.471,0.586-0.948,0.854-1.438C3.709,1.744,3.635,1.701,3.609,1.749L3.609,1.749z"/>
		</g>
	</g>
	<g display="inline">
		<g>
			<path d="M3.395,3.276c-0.24,0.17-0.443,0.365-0.634,0.59c-0.035,0.042,0.025,0.102,0.06,0.06
				c0.187-0.221,0.379-0.408,0.616-0.577C3.482,3.318,3.44,3.244,3.395,3.276L3.395,3.276z"/>
		</g>
	</g>
	<g display="inline">
		<g>
			<path d="M0.917,0.28c-0.103,0.556-0.362,1.045-0.6,1.552c-0.023,0.049,0.05,0.093,0.073,0.043
				c0.241-0.515,0.504-1.008,0.608-1.573C1.009,0.249,0.927,0.226,0.917,0.28L0.917,0.28z"/>
		</g>
	</g>
</g>
<g id="Calque_4" display="none">
	<line display="inline" fill="none" stroke="#000000" stroke-width="0.0283" stroke-miterlimit="10" x1="2" y1="0" x2="2" y2="4"/>
	
		<line display="inline" fill="none" stroke="#000000" stroke-width="0.0283" stroke-miterlimit="10" x1="4" y1="1.969" x2="0" y2="1.969"/>
</g>
<g id="Calque_5">
	<line fill="none" stroke="#000000" stroke-width="0.0283" stroke-miterlimit="10" x1="4" y1="4" x2="0" y2="0"/>
	<line fill="none" stroke="#000000" stroke-width="0.0283" stroke-miterlimit="10" x1="2" y1="4" x2="0" y2="2"/>
	<line fill="none" stroke="#000000" stroke-width="0.0283" stroke-miterlimit="10" x1="4" y1="2" x2="2" y2="0"/>
</g>
</svg>
