<?xml version="1.0" encoding="utf-8"?>
<!-- Generator: Adobe Illustrator 17.0.0, SVG Export Plug-In . SVG Version: 6.00 Build 0)  -->
<!DOCTYPE svg PUBLIC "-//W3C//DTD SVG 1.1//EN" "http://www.w3.org/Graphics/SVG/1.1/DTD/svg11.dtd">
<svg version="1.1" xmlns="http://www.w3.org/2000/svg" xmlns:xlink="http://www.w3.org/1999/xlink" x="0px" y="0px" width="4px"
	 height="4px" viewBox="0 0 4 4" enable-background="new 0 0 4 4" xml:space="preserve">
<g id="Calque_1" display="none">
	<path display="inline" fill="none" stroke="#000000" stroke-width="0.0283" stroke-miterlimit="10" d="M3.17,2.001l0.827-0.827
		H2.826V0.003L1.998,0.83L1.171,0.003v1.171H0l0.827,0.827L0,2.828h1.171V4l0.827-0.827L2.826,4V2.828h1.172L3.17,2.001z"/>
</g>
<g id="Calque_2" display="none">
	<polygon display="inline" fill="#FFFFFF" stroke="#000000" stroke-width="0.0283" stroke-miterlimit="10" points="2.014,3.166 
		2.848,4 2.848,2.819 2.361,2.819 	"/>
	<polygon display="inline" fill="#FFFFFF" stroke="#000000" stroke-width="0.0283" stroke-miterlimit="10" points="2.014,0.805 
		1.18,-0.028 1.18,1.152 1.668,1.152 	"/>
	<polygon display="inline" fill="#FFFFFF" stroke="#000000" stroke-width="0.0283" stroke-miterlimit="10" points="0.834,1.985 
		0,2.819 1.18,2.819 1.18,2.332 	"/>
	<polygon display="inline" fill="#FFFFFF" stroke="#000000" stroke-width="0.0283" stroke-miterlimit="10" points="3.195,1.985 
		4.028,1.152 2.848,1.152 2.848,1.639 	"/>
	<polygon display="inline" fill="#FFFFFF" stroke="#000000" stroke-width="0.0283" stroke-miterlimit="10" points="2.361,1.152 
		1.668,1.152 1.18,1.639 1.18,2.332 1.668,2.819 2.361,2.819 2.848,2.332 2.848,1.639 	"/>
</g>
<g id="Calque_3" display="none">
	<path display="inline" fill="none" stroke="#000000" stroke-width="0.0283" stroke-miterlimit="10" d="M2.338,1.14
		c-0.319,0.443-0.531,0.958-0.864,1.39C1.745,2.28,2.014,2.065,2.258,1.782c0.19-0.221,0.366-0.591,0.674-0.683
		c0.012,0.165-0.179,0.674-0.2,0.733C2.626,2.127,2.476,2.611,2.197,2.817C2.016,2.49,2.192,1.783,2.614,1.688
		c0.067,0.322-0.338,1.353-0.777,1.027c-0.7-0.521,0.821-1.108,1.047-1.28C2.759,1.672,2.679,1.848,2.505,2.076
		C2.317,2.323,1.746,2.984,1.356,2.893C1.224,2.034,2.046,1.815,2.485,1.29C2.358,1.5,2.26,1.707,2.106,1.905
		C2.025,2.01,1.425,2.704,1.215,2.52C1.254,2.094,1.609,1.82,1.722,1.431C1.349,1.703,1.448,2.477,1.067,2.723"/>
</g>
<g id="Calque_4" display="none">
	<line display="inline" fill="none" stroke="#000000" stroke-width="0.0283" stroke-miterlimit="10" x1="0" y1="4" x2="4" y2="0"/>
	
		<line display="inline" fill="none" stroke="#000000" stroke-width="0.0283" stroke-miterlimit="10" x1="0" y1="0" x2="3.938" y2="3.938"/>
</g>
<g id="Calque_5">
	<line fill="none" stroke="#000000" stroke-width="0.0283" stroke-miterlimit="10" x1="0" y1="4" x2="4" y2="0"/>
	<line fill="none" stroke="#000000" stroke-width="0.0283" stroke-miterlimit="10" x1="2" y1="4" x2="4" y2="2"/>
	<line fill="none" stroke="#000000" stroke-width="0.0283" stroke-miterlimit="10" x1="0" y1="2" x2="2" y2="0"/>
</g>
</svg>
